<svg width="32" height="32" fill="none" xmlns="http://www.w3.org/2000/svg"><g clip-rule="evenodd"><path d="M16 31C7.716 31 1 24.284 1 16 1 7.716 7.716 1 16 1c8.284 0 15 6.716 15 15 0 8.284-6.716 15-15 15z" stroke="#D8D8D8"/><path fill-rule="evenodd" d="M9.598 21.92h2.753v-8.893H9.598v8.892zM10.962 11.862c.899 0 1.627-.735 1.627-1.641 0-.905-.728-1.64-1.627-1.64-.9 0-1.628.735-1.628 1.64 0 .906.729 1.641 1.628 1.641zM16.751 17.252c0-1.251.576-1.995 1.678-1.995 1.011 0 1.498.714 1.498 1.995v4.667h2.74v-5.63c0-2.382-1.35-3.534-3.236-3.534-1.886 0-2.68 1.47-2.68 1.47v-1.198h-2.64v8.892h2.64v-4.667z" fill="#1D1D1D"/></g></svg>