<svg width="32" height="32" fill="none" xmlns="http://www.w3.org/2000/svg"><path clip-rule="evenodd" d="M16.25 30.8c-8.285 0-15-6.715-15-15 0-8.284 6.715-15 15-15 8.284 0 15 6.716 15 15 0 8.285-6.716 15-15 15z" stroke="#D8D8D8" stroke-width=".646"/><path fill-rule="evenodd" clip-rule="evenodd" d="M14.548 18.275v-4.948l4.348 2.474-4.348 2.474zm9.671-6.503a2.09 2.09 0 0 0-1.47-1.48c-1.297-.35-6.5-.35-6.5-.35s-5.201 0-6.499.35c-.715.192-1.279.76-1.47 1.48-.348 1.306-.348 4.03-.348 4.03s0 2.724.348 4.03a2.09 2.09 0 0 0 1.47 1.48c1.297.35 6.5.35 6.5.35s5.202 0 6.5-.35a2.088 2.088 0 0 0 1.47-1.48c.347-1.306.347-4.03.347-4.03s0-2.724-.348-4.03z" fill="#1D1D1D"/></svg>